<svg width="244" height="70" viewBox="0 0 244 70" fill="none" xmlns="http://www.w3.org/2000/svg">
<path d="M16.965 27.5C19.785 27.5 22.2 28.205 24.21 29.615C26.22 31.025 27.735 32.93 28.755 35.33C29.775 37.7 30.285 40.34 30.285 43.25C30.285 46.19 29.775 48.86 28.755 51.26C27.735 53.63 26.22 55.52 24.21 56.93C22.2 58.31 19.785 59 16.965 59H5.895C5.295 59 4.785 58.79 4.365 58.37C3.945 57.95 3.735 57.44 3.735 56.84V29.66C3.735 29.06 3.945 28.55 4.365 28.13C4.785 27.71 5.295 27.5 5.895 27.5H16.965ZM16.515 54.86C19.575 54.86 21.87 53.78 23.4 51.62C24.93 49.43 25.695 46.64 25.695 43.25C25.695 39.89 24.915 37.115 23.355 34.925C21.825 32.735 19.545 31.64 16.515 31.64H8.19V54.86H16.515ZM64.6109 43.25C64.6109 46.28 63.9509 49.025 62.6309 51.485C61.3409 53.945 59.5409 55.895 57.2309 57.335C54.9209 58.745 52.3109 59.45 49.4009 59.45C46.4909 59.45 43.8809 58.745 41.5709 57.335C39.2609 55.895 37.4459 53.945 36.1259 51.485C34.8359 49.025 34.1909 46.28 34.1909 43.25C34.1909 40.22 34.8359 37.475 36.1259 35.015C37.4459 32.555 39.2609 30.62 41.5709 29.21C43.8809 27.77 46.4909 27.05 49.4009 27.05C52.3109 27.05 54.9209 27.77 57.2309 29.21C59.5409 30.62 61.3409 32.555 62.6309 35.015C63.9509 37.475 64.6109 40.22 64.6109 43.25ZM59.9759 43.25C59.9759 41 59.5259 38.975 58.6259 37.175C57.7259 35.345 56.4659 33.92 54.8459 32.9C53.2559 31.85 51.4409 31.325 49.4009 31.325C47.3609 31.325 45.5309 31.835 43.9109 32.855C42.3209 33.875 41.0759 35.3 40.1759 37.13C39.2759 38.93 38.8259 40.97 38.8259 43.25C38.8259 45.5 39.2759 47.54 40.1759 49.37C41.0759 51.17 42.3209 52.595 43.9109 53.645C45.5309 54.665 47.3609 55.175 49.4009 55.175C51.4409 55.175 53.2559 54.665 54.8459 53.645C56.4659 52.595 57.7259 51.17 58.6259 49.37C59.5259 47.54 59.9759 45.5 59.9759 43.25ZM93.8032 27.5C94.3732 27.5 94.8382 27.695 95.1982 28.085C95.5582 28.445 95.7382 28.91 95.7382 29.48V56.795C95.7382 57.425 95.5282 57.95 95.1082 58.37C94.7182 58.79 94.2082 59 93.5782 59C93.2482 59 92.9182 58.955 92.5882 58.865C92.2882 58.745 92.0482 58.58 91.8682 58.37L74.1832 35.33V57.02C74.1832 57.59 73.9882 58.07 73.5982 58.46C73.2382 58.82 72.7732 59 72.2032 59C71.6332 59 71.1682 58.82 70.8082 58.46C70.4482 58.07 70.2682 57.59 70.2682 57.02V29.66C70.2682 29.03 70.4632 28.52 70.8532 28.13C71.2732 27.71 71.7832 27.5 72.3832 27.5C72.7432 27.5 73.0882 27.575 73.4182 27.725C73.7482 27.845 74.0032 28.025 74.1832 28.265L91.8232 51.35V29.48C91.8232 28.91 92.0032 28.445 92.3632 28.085C92.7532 27.695 93.2332 27.5 93.8032 27.5ZM112.767 59.45C110.577 59.45 108.642 59.15 106.962 58.55C105.282 57.92 103.677 56.915 102.147 55.535C101.517 54.995 101.202 54.38 101.202 53.69C101.202 53.15 101.412 52.67 101.832 52.25C102.252 51.8 102.747 51.575 103.317 51.575C103.827 51.575 104.262 51.74 104.622 52.07C105.822 53.18 107.052 54.005 108.312 54.545C109.602 55.055 111.057 55.31 112.677 55.31C114.567 55.31 116.157 54.875 117.447 54.005C118.767 53.135 119.427 52.04 119.427 50.72C119.397 49.16 118.737 47.96 117.447 47.12C116.187 46.25 114.252 45.53 111.642 44.96C108.552 44.33 106.167 43.295 104.487 41.855C102.837 40.415 102.012 38.42 102.012 35.87C102.012 34.1 102.477 32.555 103.407 31.235C104.337 29.885 105.627 28.85 107.277 28.13C108.927 27.41 110.787 27.05 112.857 27.05C114.717 27.05 116.472 27.35 118.122 27.95C119.772 28.55 121.107 29.345 122.127 30.335C122.817 30.935 123.162 31.58 123.162 32.27C123.162 32.81 122.952 33.29 122.532 33.71C122.142 34.13 121.662 34.34 121.092 34.34C120.672 34.34 120.327 34.22 120.057 33.98C119.277 33.2 118.197 32.54 116.817 32C115.437 31.46 114.117 31.19 112.857 31.19C110.847 31.19 109.242 31.61 108.042 32.45C106.872 33.26 106.287 34.34 106.287 35.69C106.287 37.16 106.872 38.285 108.042 39.065C109.242 39.845 111.012 40.505 113.352 41.045C115.692 41.555 117.597 42.155 119.067 42.845C120.567 43.535 121.722 44.495 122.532 45.725C123.342 46.955 123.747 48.56 123.747 50.54C123.747 52.28 123.252 53.825 122.262 55.175C121.302 56.525 119.982 57.575 118.302 58.325C116.622 59.075 114.777 59.45 112.767 59.45ZM149.849 27.5C150.479 27.5 150.989 27.695 151.379 28.085C151.799 28.445 152.009 28.94 152.009 29.57C152.009 30.2 151.799 30.695 151.379 31.055C150.989 31.415 150.479 31.595 149.849 31.595H141.839V56.84C141.839 57.44 141.614 57.95 141.164 58.37C140.744 58.79 140.204 59 139.544 59C138.884 59 138.329 58.79 137.879 58.37C137.459 57.95 137.249 57.44 137.249 56.84V31.595H129.284C128.654 31.595 128.129 31.415 127.709 31.055C127.319 30.665 127.124 30.155 127.124 29.525C127.124 28.925 127.319 28.445 127.709 28.085C128.129 27.695 128.654 27.5 129.284 27.5H149.849ZM184.933 43.25C184.933 46.28 184.273 49.025 182.953 51.485C181.663 53.945 179.863 55.895 177.553 57.335C175.243 58.745 172.633 59.45 169.723 59.45C166.813 59.45 164.203 58.745 161.893 57.335C159.583 55.895 157.768 53.945 156.448 51.485C155.158 49.025 154.513 46.28 154.513 43.25C154.513 40.22 155.158 37.475 156.448 35.015C157.768 32.555 159.583 30.62 161.893 29.21C164.203 27.77 166.813 27.05 169.723 27.05C172.633 27.05 175.243 27.77 177.553 29.21C179.863 30.62 181.663 32.555 182.953 35.015C184.273 37.475 184.933 40.22 184.933 43.25ZM180.298 43.25C180.298 41 179.848 38.975 178.948 37.175C178.048 35.345 176.788 33.92 175.168 32.9C173.578 31.85 171.763 31.325 169.723 31.325C167.683 31.325 165.853 31.835 164.233 32.855C162.643 33.875 161.398 35.3 160.498 37.13C159.598 38.93 159.148 40.97 159.148 43.25C159.148 45.5 159.598 47.54 160.498 49.37C161.398 51.17 162.643 52.595 164.233 53.645C165.853 54.665 167.683 55.175 169.723 55.175C171.763 55.175 173.578 54.665 175.168 53.645C176.788 52.595 178.048 51.17 178.948 49.37C179.848 47.54 180.298 45.5 180.298 43.25ZM214.575 55.4C214.875 55.61 215.115 55.88 215.295 56.21C215.475 56.51 215.565 56.825 215.565 57.155C215.565 57.785 215.355 58.25 214.935 58.55C214.545 58.85 214.065 59 213.495 59C212.925 59 212.445 58.88 212.055 58.64C211.155 58.13 210.42 57.305 209.85 56.165C209.28 55.025 208.995 53.345 208.995 51.125C208.995 49.625 208.545 48.515 207.645 47.795C206.745 47.075 205.575 46.715 204.135 46.715H195.045V56.84C195.045 57.47 194.865 57.995 194.505 58.415C194.145 58.805 193.68 59 193.11 59C192.42 59 191.82 58.79 191.31 58.37C190.83 57.95 190.59 57.44 190.59 56.84V29.66C190.59 29.06 190.8 28.55 191.22 28.13C191.64 27.71 192.15 27.5 192.75 27.5H205.395C207.015 27.5 208.5 27.905 209.85 28.715C211.2 29.495 212.28 30.59 213.09 32C213.9 33.38 214.305 34.94 214.305 36.68C214.305 38.36 213.855 39.935 212.955 41.405C212.055 42.845 210.9 43.925 209.49 44.645C210.6 45.215 211.47 46.01 212.1 47.03C212.76 48.05 213.12 49.235 213.18 50.585C213.3 52.295 213.435 53.465 213.585 54.095C213.735 54.695 214.065 55.13 214.575 55.4ZM205.305 42.98C206.055 42.92 206.76 42.62 207.42 42.08C208.11 41.54 208.665 40.82 209.085 39.92C209.505 38.99 209.715 37.955 209.715 36.815C209.715 35.375 209.265 34.16 208.365 33.17C207.495 32.15 206.43 31.64 205.17 31.64H195.045V42.98H205.305ZM238.996 54.86C239.626 54.86 240.136 55.07 240.526 55.49C240.946 55.91 241.156 56.405 241.156 56.975C241.156 57.575 240.946 58.07 240.526 58.46C240.136 58.82 239.626 59 238.996 59H223.336C222.736 59 222.226 58.79 221.806 58.37C221.386 57.95 221.176 57.44 221.176 56.84V29.66C221.176 29.06 221.386 28.55 221.806 28.13C222.226 27.71 222.736 27.5 223.336 27.5H238.996C239.626 27.5 240.136 27.695 240.526 28.085C240.946 28.475 241.156 28.985 241.156 29.615C241.156 30.215 240.946 30.71 240.526 31.1C240.136 31.46 239.626 31.64 238.996 31.64H225.631V40.82H236.971C237.601 40.82 238.111 41.015 238.501 41.405C238.921 41.795 239.131 42.29 239.131 42.89C239.131 43.52 238.921 44.015 238.501 44.375C238.111 44.735 237.601 44.915 236.971 44.915H225.631V54.86H238.996Z" fill="#3E3D3D"/>
<path d="M64 19L121.5 3L179 19" stroke="#3E3D3D" stroke-width="4"/>
</svg>
