<svg width="240" height="81" viewBox="0 0 240 81" fill="none" xmlns="http://www.w3.org/2000/svg">
<path d="M13.59 31.725C16.92 31.725 19.83 32.37 22.32 33.66C24.84 34.92 26.775 36.75 28.125 39.15C29.505 41.52 30.195 44.295 30.195 47.475C30.195 50.655 29.505 53.415 28.125 55.755C26.775 58.095 24.84 59.895 22.32 61.155C19.83 62.385 16.92 63 13.59 63H3.375V31.725H13.59ZM13.59 58.815C17.25 58.815 20.055 57.825 22.005 55.845C23.955 53.865 24.93 51.075 24.93 47.475C24.93 43.845 23.955 41.01 22.005 38.97C20.055 36.93 17.25 35.91 13.59 35.91H8.505V58.815H13.59ZM49.5443 63.315C46.6343 63.315 43.9493 62.64 41.4893 61.29C39.0593 59.91 37.1243 58.005 35.6843 55.575C34.2743 53.115 33.5693 50.355 33.5693 47.295C33.5693 44.235 34.2743 41.49 35.6843 39.06C37.1243 36.63 39.0593 34.74 41.4893 33.39C43.9493 32.01 46.6343 31.32 49.5443 31.32C52.4843 31.32 55.1693 32.01 57.5993 33.39C60.0593 34.74 61.9943 36.63 63.4043 39.06C64.8143 41.49 65.5193 44.235 65.5193 47.295C65.5193 50.355 64.8143 53.115 63.4043 55.575C61.9943 58.005 60.0593 59.91 57.5993 61.29C55.1693 62.64 52.4843 63.315 49.5443 63.315ZM49.5443 58.86C51.6143 58.86 53.4593 58.395 55.0793 57.465C56.6993 56.505 57.9593 55.155 58.8593 53.415C59.7893 51.645 60.2543 49.605 60.2543 47.295C60.2543 44.985 59.7893 42.96 58.8593 41.22C57.9593 39.48 56.6993 38.145 55.0793 37.215C53.4593 36.285 51.6143 35.82 49.5443 35.82C47.4743 35.82 45.6293 36.285 44.0093 37.215C42.3893 38.145 41.1143 39.48 40.1843 41.22C39.2843 42.96 38.8343 44.985 38.8343 47.295C38.8343 49.605 39.2843 51.645 40.1843 53.415C41.1143 55.155 42.3893 56.505 44.0093 57.465C45.6293 58.395 47.4743 58.86 49.5443 58.86ZM96.2624 63H91.1324L75.6974 39.645V63H70.5674V31.68H75.6974L91.1324 54.99V31.68H96.2624V63ZM113.304 63.315C111.204 63.315 109.314 62.955 107.634 62.235C105.954 61.485 104.634 60.435 103.674 59.085C102.714 57.735 102.234 56.16 102.234 54.36H107.724C107.844 55.71 108.369 56.82 109.299 57.69C110.259 58.56 111.594 58.995 113.304 58.995C115.074 58.995 116.454 58.575 117.444 57.735C118.434 56.865 118.929 55.755 118.929 54.405C118.929 53.355 118.614 52.5 117.984 51.84C117.384 51.18 116.619 50.67 115.689 50.31C114.789 49.95 113.529 49.56 111.909 49.14C109.869 48.6 108.204 48.06 106.914 47.52C105.654 46.95 104.574 46.08 103.674 44.91C102.774 43.74 102.324 42.18 102.324 40.23C102.324 38.43 102.774 36.855 103.674 35.505C104.574 34.155 105.834 33.12 107.454 32.4C109.074 31.68 110.949 31.32 113.079 31.32C116.109 31.32 118.584 32.085 120.504 33.615C122.454 35.115 123.534 37.185 123.744 39.825H118.074C117.984 38.685 117.444 37.71 116.454 36.9C115.464 36.09 114.159 35.685 112.539 35.685C111.069 35.685 109.869 36.06 108.939 36.81C108.009 37.56 107.544 38.64 107.544 40.05C107.544 41.01 107.829 41.805 108.399 42.435C108.999 43.035 109.749 43.515 110.649 43.875C111.549 44.235 112.779 44.625 114.339 45.045C116.409 45.615 118.089 46.185 119.379 46.755C120.699 47.325 121.809 48.21 122.709 49.41C123.639 50.58 124.104 52.155 124.104 54.135C124.104 55.725 123.669 57.225 122.799 58.635C121.959 60.045 120.714 61.185 119.064 62.055C117.444 62.895 115.524 63.315 113.304 63.315ZM150.362 31.725V35.91H142.037V63H136.907V35.91H128.537V31.725H150.362ZM169.823 63.315C166.913 63.315 164.228 62.64 161.768 61.29C159.338 59.91 157.403 58.005 155.963 55.575C154.553 53.115 153.848 50.355 153.848 47.295C153.848 44.235 154.553 41.49 155.963 39.06C157.403 36.63 159.338 34.74 161.768 33.39C164.228 32.01 166.913 31.32 169.823 31.32C172.763 31.32 175.448 32.01 177.878 33.39C180.338 34.74 182.273 36.63 183.683 39.06C185.093 41.49 185.798 44.235 185.798 47.295C185.798 50.355 185.093 53.115 183.683 55.575C182.273 58.005 180.338 59.91 177.878 61.29C175.448 62.64 172.763 63.315 169.823 63.315ZM169.823 58.86C171.893 58.86 173.738 58.395 175.358 57.465C176.978 56.505 178.238 55.155 179.138 53.415C180.068 51.645 180.533 49.605 180.533 47.295C180.533 44.985 180.068 42.96 179.138 41.22C178.238 39.48 176.978 38.145 175.358 37.215C173.738 36.285 171.893 35.82 169.823 35.82C167.753 35.82 165.908 36.285 164.288 37.215C162.668 38.145 161.393 39.48 160.463 41.22C159.563 42.96 159.113 44.985 159.113 47.295C159.113 49.605 159.563 51.645 160.463 53.415C161.393 55.155 162.668 56.505 164.288 57.465C165.908 58.395 167.753 58.86 169.823 58.86ZM207.091 63L199.891 50.49H195.976V63H190.846V31.725H201.646C204.046 31.725 206.071 32.145 207.721 32.985C209.401 33.825 210.646 34.95 211.456 36.36C212.296 37.77 212.716 39.345 212.716 41.085C212.716 43.125 212.116 44.985 210.916 46.665C209.746 48.315 207.931 49.44 205.471 50.04L213.211 63H207.091ZM195.976 46.395H201.646C203.566 46.395 205.006 45.915 205.966 44.955C206.956 43.995 207.451 42.705 207.451 41.085C207.451 39.465 206.971 38.205 206.011 37.305C205.051 36.375 203.596 35.91 201.646 35.91H195.976V46.395ZM224.408 35.865V45.045H235.208V49.23H224.408V58.815H236.558V63H219.278V31.68H236.558V35.865H224.408Z" fill="white"/>
<path d="M62 19L119.5 3L177 19" stroke="white" stroke-width="4"/>
</svg>
